<svg width="526" height="526" viewBox="0 0 526 526" fill="none" xmlns="http://www.w3.org/2000/svg">
  <path d="M0 0H526V526H0V0Z" fill="#F2CB09"/>
  <path d="M85.4752 55.8879C85.4752 72.2286 72.2285 85.4754 55.8877 85.4754C39.547 85.4754 26.3002 72.2286 26.3002 55.8879C26.3002 39.5471 39.547 26.3004 55.8877 26.3004C72.2285 26.3004 85.4752 39.5471 85.4752 55.8879Z" fill="#A58705"/>
  <path d="M85.4752 470.113C85.4752 486.454 72.2285 499.7 55.8877 499.7C39.547 499.7 26.3002 486.454 26.3002 470.113C26.3002 453.772 39.547 440.525 55.8877 440.525C72.2285 440.525 85.4752 453.772 85.4752 470.113Z" fill="#A58705"/>
  <path d="M499.7 55.8879C499.7 72.2286 486.453 85.4754 470.113 85.4754C453.772 85.4754 440.525 72.2286 440.525 55.8879C440.525 39.5471 453.772 26.3004 470.113 26.3004C486.453 26.3004 499.7 39.5471 499.7 55.8879Z" fill="#A58705"/>
  <path d="M499.7 470.113C499.7 486.454 486.453 499.7 470.113 499.7C453.772 499.7 440.525 486.454 440.525 470.113C440.525 453.772 453.772 440.525 470.113 440.525C486.453 440.525 499.7 453.772 499.7 470.113Z" fill="#A58705"/>
  <path d="M191.94 221.79H98.7684C95.0581 221.79 92.0502 218.772 92.0502 215.048V125.698C92.0502 123.916 92.7533 122.206 94.0058 120.942L136.344 78.2565C137.604 76.9846 139.318 76.2695 141.106 76.2695H384.687C386.475 76.2695 388.189 76.9846 389.45 78.2565L431.995 121.267C433.247 122.53 433.95 124.24 433.95 126.022V243.132C433.95 244.914 433.247 246.623 431.995 247.887L386.82 290.897C385.559 292.169 383.845 292.884 382.057 292.884H325.351C323.563 292.884 321.849 293.599 320.589 294.871L318.198 297.329C316.945 298.592 316.242 300.302 316.242 302.084V353.448C316.242 357.171 313.234 360.19 309.524 360.19H217.201C213.491 360.19 210.483 357.171 210.483 353.448V270.904C210.483 269.122 211.186 267.412 212.439 266.148L256.599 221.601C257.86 220.329 259.574 219.614 261.361 219.614H314.505C316.293 219.614 318.007 218.899 319.268 217.627L323.523 213.243C324.775 211.98 325.478 210.27 325.478 208.488V153.933C325.478 152.151 324.775 150.441 323.523 149.178L321.898 147.424C320.637 146.152 318.923 145.437 317.135 145.437H209.631C207.843 145.437 206.129 146.152 204.869 147.424L200.614 151.808C199.362 153.071 198.658 154.781 198.658 156.563V215.048C198.658 218.772 195.651 221.79 191.94 221.79Z" fill="white"/>
  <path d="M210.348 388.235C210.348 384.512 213.356 381.493 217.066 381.493H308.205C311.915 381.493 314.923 384.512 314.923 388.235V445.617C314.923 449.341 311.915 452.359 308.205 452.359H217.066C213.356 452.359 210.348 449.341 210.348 445.617V388.235Z" fill="white"/>
</svg>