<svg width="530" height="530" viewBox="0 0 530 530" fill="none" xmlns="http://www.w3.org/2000/svg">
  <path d="M2 2H528V528H2V2Z" stroke="white" stroke-width="4"/>
  <path d="M87.475 57.8875C87.475 74.2282 74.2282 87.475 57.8875 87.475C41.5468 87.475 28.3 74.2282 28.3 57.8875C28.3 41.5468 41.5468 28.3 57.8875 28.3C74.2282 28.3 87.475 41.5468 87.475 57.8875Z" fill="#fff3" stroke="white" stroke-width="4"/>
  <path d="M87.475 472.112C87.475 488.453 74.2282 501.7 57.8875 501.7C41.5468 501.7 28.3 488.453 28.3 472.112C28.3 455.772 41.5468 442.525 57.8875 442.525C74.2282 442.525 87.475 455.772 87.475 472.112Z" fill="#fff3" stroke="white" stroke-width="4"/>
  <path d="M501.7 57.8875C501.7 74.2282 488.453 87.475 472.112 87.475C455.772 87.475 442.525 74.2282 442.525 57.8875C442.525 41.5468 455.772 28.3 472.112 28.3C488.453 28.3 501.7 41.5468 501.7 57.8875Z" fill="#fff3" stroke="white" stroke-width="4"/>
  <path d="M501.7 472.112C501.7 488.453 488.453 501.7 472.112 501.7C455.772 501.7 442.525 488.453 442.525 472.112C442.525 455.772 455.772 442.525 472.112 442.525C488.453 442.525 501.7 455.772 501.7 472.112Z" fill="#fff3" stroke="white" stroke-width="4"/>
  <path d="M193.94 223.791H100.768C97.0579 223.791 94.05 220.772 94.05 217.049V127.698C94.05 125.916 94.7531 124.206 96.0055 122.943L138.343 80.2571C139.604 78.9851 141.318 78.27 143.106 78.27H386.687C388.475 78.27 390.189 78.9851 391.45 80.2571L433.994 123.267C435.247 124.53 435.95 126.24 435.95 128.022V245.132C435.95 246.914 435.247 248.624 433.994 249.887L388.82 292.897C387.559 294.169 385.845 294.884 384.057 294.884H327.351C325.563 294.884 323.849 295.6 322.588 296.872L320.197 299.329C318.945 300.593 318.242 302.303 318.242 304.085V355.448C318.242 359.172 315.234 362.19 311.524 362.19H219.201C215.491 362.19 212.483 359.172 212.483 355.448V272.904C212.483 271.122 213.186 269.412 214.438 268.149L258.599 223.602C259.859 222.33 261.573 221.615 263.361 221.615H316.505C318.293 221.615 320.007 220.9 321.268 219.628L325.522 215.244C326.775 213.98 327.478 212.27 327.478 210.488V155.934C327.478 154.152 326.775 152.442 325.522 151.178L323.898 149.424C322.637 148.152 320.923 147.437 319.135 147.437H211.631C209.843 147.437 208.129 148.152 206.868 149.424L202.614 153.808C201.361 155.072 200.658 156.782 200.658 158.564V217.049C200.658 220.772 197.65 223.791 193.94 223.791Z" fill="#fff3" stroke="white" stroke-width="4"/>
  <path d="M212.348 390.236C212.348 386.512 215.356 383.493 219.066 383.493H310.205C313.915 383.493 316.923 386.512 316.923 390.236V447.618C316.923 451.341 313.915 454.36 310.205 454.36H219.066C215.356 454.36 212.348 451.341 212.348 447.618V390.236Z" fill="#fff3" stroke="white" stroke-width="4"/>
</svg>